<svg width="517" height="358" viewBox="0 0 517 358" fill="none" xmlns="http://www.w3.org/2000/svg">
<g id="ilust.graficFunds 1">
<path id="Vector" d="M100 194.449V238C70.4169 220.162 56.072 189.197 57.0465 158.675V121C57.2518 127.346 58.1208 133.653 59.6394 139.817C62.4113 151.164 67.4089 161.841 74.3394 171.222C81.2699 180.603 89.9938 188.5 100 194.449Z" fill="url(#paint0_linear_2_2)"/>
<path id="Vector_2" d="M370.673 251.949C330.316 275.219 284.603 287.64 238 288V244.753C284.603 244.387 330.314 231.959 370.667 208.684C393.012 195.803 406.913 175.615 412.359 153.644C413.956 147.213 414.833 140.624 414.974 134L414.864 170.358C416.592 201.766 401.856 233.967 370.673 251.949Z" fill="url(#paint1_linear_2_2)"/>
<path id="Vector_3" d="M238 261.801V304.99C190.048 305.396 142.861 292.963 101.336 268.982C100.885 268.722 100.439 268.461 100 268.195V225C100.439 225.266 100.885 225.526 101.336 225.786C142.862 249.765 190.048 262.199 238 261.801Z" fill="url(#paint2_linear_2_2)"/>
<path id="Vector_4" d="M414.979 134.316V134.357C414.84 140.985 413.963 147.577 412.363 154.012C406.917 175.951 393.016 196.11 370.67 208.973C330.317 232.218 284.605 244.631 238 245V128.523L326.31 77.7023L367.486 54L370.664 55.821C400.863 73.2104 415.64 103.908 414.979 134.316Z" fill="url(#paint3_linear_2_2)"/>
<path id="Vector_5" d="M368 40.7173L326.81 64.4362L238.471 115.293L100.018 195C90.0085 189.097 81.2811 181.26 74.3475 171.95C67.414 162.64 62.4138 152.044 59.6401 140.782C58.1213 134.665 57.2521 128.406 57.0468 122.108V122.073C56.0548 91.3195 70.8253 60.132 101.358 42.5569L106.249 39.7454C145.782 16.9833 190.628 5 236.278 5C281.927 5 326.773 16.9833 366.306 39.7454L368 40.7173Z" fill="url(#paint4_linear_2_2)"/>
<path id="Vector_6" d="M238 145V261.991C190.048 262.391 142.862 249.9 101.336 225.813C100.885 225.551 100.439 225.29 100 225.023L238 145Z" fill="url(#paint5_linear_2_2)"/>
<path id="Vector_7" d="M368 40V53.7963L326.807 77.5174L238.462 128.391V145.266L100 225V194.329L238.462 114.595L326.807 63.7211L368 40Z" fill="url(#paint6_linear_2_2)"/>
<path id="50%" d="M28.5215 29.3457L24.4785 28.3789L25.9375 15.4062H40.3164V19.502H30.1035L29.4707 25.1797C29.8105 24.9805 30.3262 24.7695 31.0176 24.5469C31.709 24.3125 32.4824 24.1953 33.3379 24.1953C34.5801 24.1953 35.6816 24.3887 36.6426 24.7754C37.6035 25.1621 38.418 25.7246 39.0859 26.4629C39.7656 27.2012 40.2812 28.1035 40.6328 29.1699C40.9844 30.2363 41.1602 31.4434 41.1602 32.791C41.1602 33.9277 40.9844 35.0117 40.6328 36.043C40.2812 37.0625 39.748 37.9766 39.0332 38.7852C38.3184 39.582 37.4219 40.209 36.3438 40.666C35.2656 41.123 33.9883 41.3516 32.5117 41.3516C31.4102 41.3516 30.3438 41.1875 29.3125 40.8594C28.293 40.5312 27.373 40.0449 26.5527 39.4004C25.7441 38.7559 25.0938 37.9766 24.6016 37.0625C24.1211 36.1367 23.8691 35.082 23.8457 33.8984H28.873C28.9434 34.625 29.1309 35.252 29.4355 35.7793C29.752 36.2949 30.168 36.6934 30.6836 36.9746C31.1992 37.2559 31.8027 37.3965 32.4941 37.3965C33.1387 37.3965 33.6895 37.2734 34.1465 37.0273C34.6035 36.7812 34.9727 36.4414 35.2539 36.0078C35.5352 35.5625 35.7402 35.0469 35.8691 34.4609C36.0098 33.8633 36.0801 33.2188 36.0801 32.5273C36.0801 31.8359 35.998 31.209 35.834 30.6465C35.6699 30.084 35.418 29.5977 35.0781 29.1875C34.7383 28.7773 34.3047 28.4609 33.7773 28.2383C33.2617 28.0156 32.6582 27.9043 31.9668 27.9043C31.0293 27.9043 30.3027 28.0508 29.7871 28.3438C29.2832 28.6367 28.8613 28.9707 28.5215 29.3457ZM61.6562 25.9531V30.3828C61.6562 32.3047 61.4512 33.9629 61.041 35.3574C60.6309 36.7402 60.0391 37.877 59.2656 38.7676C58.5039 39.6465 57.5957 40.2969 56.541 40.7188C55.4863 41.1406 54.3145 41.3516 53.0254 41.3516C51.9941 41.3516 51.0332 41.2227 50.1426 40.9648C49.252 40.6953 48.4492 40.2793 47.7344 39.7168C47.0312 39.1543 46.4219 38.4453 45.9062 37.5898C45.4023 36.7227 45.0156 35.6914 44.7461 34.4961C44.4766 33.3008 44.3418 31.9297 44.3418 30.3828V25.9531C44.3418 24.0312 44.5469 22.3848 44.957 21.0137C45.3789 19.6309 45.9707 18.5 46.7324 17.6211C47.5059 16.7422 48.4199 16.0977 49.4746 15.6875C50.5293 15.2656 51.7012 15.0547 52.9902 15.0547C54.0215 15.0547 54.9766 15.1895 55.8555 15.459C56.7461 15.7168 57.5488 16.1211 58.2637 16.6719C58.9785 17.2227 59.5879 17.9316 60.0918 18.7988C60.5957 19.6543 60.9824 20.6797 61.252 21.875C61.5215 23.0586 61.6562 24.418 61.6562 25.9531ZM56.5762 31.0508V25.2676C56.5762 24.3418 56.5234 23.5332 56.418 22.8418C56.3242 22.1504 56.1777 21.5645 55.9785 21.084C55.7793 20.5918 55.5332 20.1934 55.2402 19.8887C54.9473 19.584 54.6133 19.3613 54.2383 19.2207C53.8633 19.0801 53.4473 19.0098 52.9902 19.0098C52.416 19.0098 51.9062 19.1211 51.4609 19.3438C51.0273 19.5664 50.6582 19.9238 50.3535 20.416C50.0488 20.8965 49.8145 21.541 49.6504 22.3496C49.498 23.1465 49.4219 24.1191 49.4219 25.2676V31.0508C49.4219 31.9766 49.4688 32.791 49.5625 33.4941C49.668 34.1973 49.8203 34.8008 50.0195 35.3047C50.2305 35.7969 50.4766 36.2012 50.7578 36.5176C51.0508 36.8223 51.3848 37.0449 51.7598 37.1855C52.1465 37.3262 52.5684 37.3965 53.0254 37.3965C53.5879 37.3965 54.0859 37.2852 54.5195 37.0625C54.9648 36.8281 55.3398 36.4648 55.6445 35.9727C55.9609 35.4688 56.1953 34.8125 56.3477 34.0039C56.5 33.1953 56.5762 32.2109 56.5762 31.0508ZM65.0312 21.6816V20.3281C65.0312 19.3555 65.2422 18.4707 65.6641 17.6738C66.0859 16.877 66.707 16.2383 67.5273 15.7578C68.3477 15.2773 69.3555 15.0371 70.5508 15.0371C71.7812 15.0371 72.8066 15.2773 73.627 15.7578C74.459 16.2383 75.0801 16.877 75.4902 17.6738C75.9121 18.4707 76.123 19.3555 76.123 20.3281V21.6816C76.123 22.6309 75.9121 23.5039 75.4902 24.3008C75.0801 25.0977 74.4648 25.7363 73.6445 26.2168C72.8242 26.6973 71.8105 26.9375 70.6035 26.9375C69.3848 26.9375 68.3594 26.6973 67.5273 26.2168C66.707 25.7363 66.0859 25.0977 65.6641 24.3008C65.2422 23.5039 65.0312 22.6309 65.0312 21.6816ZM68.3887 20.3281V21.6816C68.3887 22.0918 68.4648 22.4844 68.6172 22.8594C68.7812 23.2227 69.0273 23.5215 69.3555 23.7559C69.6953 23.9785 70.1055 24.0898 70.5859 24.0898C71.0898 24.0898 71.5 23.9785 71.8164 23.7559C72.1328 23.5215 72.3672 23.2227 72.5195 22.8594C72.6719 22.4844 72.748 22.0918 72.748 21.6816V20.3281C72.748 19.8945 72.666 19.4961 72.502 19.1328C72.3496 18.7578 72.1094 18.459 71.7812 18.2363C71.4648 18.002 71.0547 17.8848 70.5508 17.8848C70.082 17.8848 69.6836 18.002 69.3555 18.2363C69.0273 18.459 68.7812 18.7578 68.6172 19.1328C68.4648 19.4961 68.3887 19.8945 68.3887 20.3281ZM77.2656 36.0781V34.7246C77.2656 33.7637 77.4766 32.8848 77.8984 32.0879C78.332 31.291 78.959 30.6523 79.7793 30.1719C80.6113 29.6914 81.6309 29.4512 82.8379 29.4512C84.0566 29.4512 85.0762 29.6914 85.8965 30.1719C86.7168 30.6523 87.3379 31.291 87.7598 32.0879C88.1816 32.8848 88.3926 33.7637 88.3926 34.7246V36.0781C88.3926 37.0391 88.1816 37.918 87.7598 38.7148C87.3496 39.5117 86.7344 40.1504 85.9141 40.6309C85.0938 41.1113 84.0801 41.3516 82.873 41.3516C81.6543 41.3516 80.6289 41.1113 79.7969 40.6309C78.9648 40.1504 78.332 39.5117 77.8984 38.7148C77.4766 37.918 77.2656 37.0391 77.2656 36.0781ZM80.6406 34.7246V36.0781C80.6406 36.5 80.7344 36.8984 80.9219 37.2734C81.1094 37.6484 81.3672 37.9473 81.6953 38.1699C82.0352 38.3926 82.4277 38.5039 82.873 38.5039C83.4355 38.5039 83.875 38.3926 84.1914 38.1699C84.5078 37.9473 84.7246 37.6484 84.8418 37.2734C84.9707 36.8984 85.0352 36.5 85.0352 36.0781V34.7246C85.0352 34.3027 84.9531 33.9102 84.7891 33.5469C84.625 33.1719 84.3789 32.873 84.0508 32.6504C83.7344 32.416 83.3301 32.2988 82.8379 32.2988C82.3457 32.2988 81.9355 32.416 81.6074 32.6504C81.291 32.873 81.0508 33.1719 80.8867 33.5469C80.7227 33.9102 80.6406 34.3027 80.6406 34.7246ZM84.0859 19.0625L71.5879 39.0664L69.127 37.7656L81.625 17.7617L84.0859 19.0625Z" fill="white"/>
<path id="10%" d="M108.098 318.354V344H103.035V324.189L96.9531 326.123V322.133L107.553 318.354H108.098ZM133.656 328.953V333.383C133.656 335.305 133.451 336.963 133.041 338.357C132.631 339.74 132.039 340.877 131.266 341.768C130.504 342.646 129.596 343.297 128.541 343.719C127.486 344.141 126.314 344.352 125.025 344.352C123.994 344.352 123.033 344.223 122.143 343.965C121.252 343.695 120.449 343.279 119.734 342.717C119.031 342.154 118.422 341.445 117.906 340.59C117.402 339.723 117.016 338.691 116.746 337.496C116.477 336.301 116.342 334.93 116.342 333.383V328.953C116.342 327.031 116.547 325.385 116.957 324.014C117.379 322.631 117.971 321.5 118.732 320.621C119.506 319.742 120.42 319.098 121.475 318.688C122.529 318.266 123.701 318.055 124.99 318.055C126.021 318.055 126.977 318.189 127.855 318.459C128.746 318.717 129.549 319.121 130.264 319.672C130.979 320.223 131.588 320.932 132.092 321.799C132.596 322.654 132.982 323.68 133.252 324.875C133.521 326.059 133.656 327.418 133.656 328.953ZM128.576 334.051V328.268C128.576 327.342 128.523 326.533 128.418 325.842C128.324 325.15 128.178 324.564 127.979 324.084C127.779 323.592 127.533 323.193 127.24 322.889C126.947 322.584 126.613 322.361 126.238 322.221C125.863 322.08 125.447 322.01 124.99 322.01C124.416 322.01 123.906 322.121 123.461 322.344C123.027 322.566 122.658 322.924 122.354 323.416C122.049 323.896 121.814 324.541 121.65 325.35C121.498 326.146 121.422 327.119 121.422 328.268V334.051C121.422 334.977 121.469 335.791 121.562 336.494C121.668 337.197 121.82 337.801 122.02 338.305C122.23 338.797 122.477 339.201 122.758 339.518C123.051 339.822 123.385 340.045 123.76 340.186C124.146 340.326 124.568 340.396 125.025 340.396C125.588 340.396 126.086 340.285 126.52 340.062C126.965 339.828 127.34 339.465 127.645 338.973C127.961 338.469 128.195 337.812 128.348 337.004C128.5 336.195 128.576 335.211 128.576 334.051ZM137.031 324.682V323.328C137.031 322.355 137.242 321.471 137.664 320.674C138.086 319.877 138.707 319.238 139.527 318.758C140.348 318.277 141.355 318.037 142.551 318.037C143.781 318.037 144.807 318.277 145.627 318.758C146.459 319.238 147.08 319.877 147.49 320.674C147.912 321.471 148.123 322.355 148.123 323.328V324.682C148.123 325.631 147.912 326.504 147.49 327.301C147.08 328.098 146.465 328.736 145.645 329.217C144.824 329.697 143.811 329.938 142.604 329.938C141.385 329.938 140.359 329.697 139.527 329.217C138.707 328.736 138.086 328.098 137.664 327.301C137.242 326.504 137.031 325.631 137.031 324.682ZM140.389 323.328V324.682C140.389 325.092 140.465 325.484 140.617 325.859C140.781 326.223 141.027 326.521 141.355 326.756C141.695 326.979 142.105 327.09 142.586 327.09C143.09 327.09 143.5 326.979 143.816 326.756C144.133 326.521 144.367 326.223 144.52 325.859C144.672 325.484 144.748 325.092 144.748 324.682V323.328C144.748 322.895 144.666 322.496 144.502 322.133C144.35 321.758 144.109 321.459 143.781 321.236C143.465 321.002 143.055 320.885 142.551 320.885C142.082 320.885 141.684 321.002 141.355 321.236C141.027 321.459 140.781 321.758 140.617 322.133C140.465 322.496 140.389 322.895 140.389 323.328ZM149.266 339.078V337.725C149.266 336.764 149.477 335.885 149.898 335.088C150.332 334.291 150.959 333.652 151.779 333.172C152.611 332.691 153.631 332.451 154.838 332.451C156.057 332.451 157.076 332.691 157.896 333.172C158.717 333.652 159.338 334.291 159.76 335.088C160.182 335.885 160.393 336.764 160.393 337.725V339.078C160.393 340.039 160.182 340.918 159.76 341.715C159.35 342.512 158.734 343.15 157.914 343.631C157.094 344.111 156.08 344.352 154.873 344.352C153.654 344.352 152.629 344.111 151.797 343.631C150.965 343.15 150.332 342.512 149.898 341.715C149.477 340.918 149.266 340.039 149.266 339.078ZM152.641 337.725V339.078C152.641 339.5 152.734 339.898 152.922 340.273C153.109 340.648 153.367 340.947 153.695 341.17C154.035 341.393 154.428 341.504 154.873 341.504C155.436 341.504 155.875 341.393 156.191 341.17C156.508 340.947 156.725 340.648 156.842 340.273C156.971 339.898 157.035 339.5 157.035 339.078V337.725C157.035 337.303 156.953 336.91 156.789 336.547C156.625 336.172 156.379 335.873 156.051 335.65C155.734 335.416 155.33 335.299 154.838 335.299C154.346 335.299 153.936 335.416 153.607 335.65C153.291 335.873 153.051 336.172 152.887 336.547C152.723 336.91 152.641 337.303 152.641 337.725ZM156.086 322.062L143.588 342.066L141.127 340.766L153.625 320.762L156.086 322.062Z" fill="white"/>
<path id="40%" d="M446.688 214.438V218.41H428.248L428.002 215.334L438.672 198.406H442.697L438.338 205.701L433.029 214.438H446.688ZM443.787 198.406V224H438.725V198.406H443.787ZM466.656 208.953V213.383C466.656 215.305 466.451 216.963 466.041 218.357C465.631 219.74 465.039 220.877 464.266 221.768C463.504 222.646 462.596 223.297 461.541 223.719C460.486 224.141 459.314 224.352 458.025 224.352C456.994 224.352 456.033 224.223 455.143 223.965C454.252 223.695 453.449 223.279 452.734 222.717C452.031 222.154 451.422 221.445 450.906 220.59C450.402 219.723 450.016 218.691 449.746 217.496C449.477 216.301 449.342 214.93 449.342 213.383V208.953C449.342 207.031 449.547 205.385 449.957 204.014C450.379 202.631 450.971 201.5 451.732 200.621C452.506 199.742 453.42 199.098 454.475 198.688C455.529 198.266 456.701 198.055 457.99 198.055C459.021 198.055 459.977 198.189 460.855 198.459C461.746 198.717 462.549 199.121 463.264 199.672C463.979 200.223 464.588 200.932 465.092 201.799C465.596 202.654 465.982 203.68 466.252 204.875C466.521 206.059 466.656 207.418 466.656 208.953ZM461.576 214.051V208.268C461.576 207.342 461.523 206.533 461.418 205.842C461.324 205.15 461.178 204.564 460.979 204.084C460.779 203.592 460.533 203.193 460.24 202.889C459.947 202.584 459.613 202.361 459.238 202.221C458.863 202.08 458.447 202.01 457.99 202.01C457.416 202.01 456.906 202.121 456.461 202.344C456.027 202.566 455.658 202.924 455.354 203.416C455.049 203.896 454.814 204.541 454.65 205.35C454.498 206.146 454.422 207.119 454.422 208.268V214.051C454.422 214.977 454.469 215.791 454.562 216.494C454.668 217.197 454.82 217.801 455.02 218.305C455.23 218.797 455.477 219.201 455.758 219.518C456.051 219.822 456.385 220.045 456.76 220.186C457.146 220.326 457.568 220.396 458.025 220.396C458.588 220.396 459.086 220.285 459.52 220.062C459.965 219.828 460.34 219.465 460.645 218.973C460.961 218.469 461.195 217.812 461.348 217.004C461.5 216.195 461.576 215.211 461.576 214.051ZM470.031 204.682V203.328C470.031 202.355 470.242 201.471 470.664 200.674C471.086 199.877 471.707 199.238 472.527 198.758C473.348 198.277 474.355 198.037 475.551 198.037C476.781 198.037 477.807 198.277 478.627 198.758C479.459 199.238 480.08 199.877 480.49 200.674C480.912 201.471 481.123 202.355 481.123 203.328V204.682C481.123 205.631 480.912 206.504 480.49 207.301C480.08 208.098 479.465 208.736 478.645 209.217C477.824 209.697 476.811 209.938 475.604 209.938C474.385 209.938 473.359 209.697 472.527 209.217C471.707 208.736 471.086 208.098 470.664 207.301C470.242 206.504 470.031 205.631 470.031 204.682ZM473.389 203.328V204.682C473.389 205.092 473.465 205.484 473.617 205.859C473.781 206.223 474.027 206.521 474.355 206.756C474.695 206.979 475.105 207.09 475.586 207.09C476.09 207.09 476.5 206.979 476.816 206.756C477.133 206.521 477.367 206.223 477.52 205.859C477.672 205.484 477.748 205.092 477.748 204.682V203.328C477.748 202.895 477.666 202.496 477.502 202.133C477.35 201.758 477.109 201.459 476.781 201.236C476.465 201.002 476.055 200.885 475.551 200.885C475.082 200.885 474.684 201.002 474.355 201.236C474.027 201.459 473.781 201.758 473.617 202.133C473.465 202.496 473.389 202.895 473.389 203.328ZM482.266 219.078V217.725C482.266 216.764 482.477 215.885 482.898 215.088C483.332 214.291 483.959 213.652 484.779 213.172C485.611 212.691 486.631 212.451 487.838 212.451C489.057 212.451 490.076 212.691 490.896 213.172C491.717 213.652 492.338 214.291 492.76 215.088C493.182 215.885 493.393 216.764 493.393 217.725V219.078C493.393 220.039 493.182 220.918 492.76 221.715C492.35 222.512 491.734 223.15 490.914 223.631C490.094 224.111 489.08 224.352 487.873 224.352C486.654 224.352 485.629 224.111 484.797 223.631C483.965 223.15 483.332 222.512 482.898 221.715C482.477 220.918 482.266 220.039 482.266 219.078ZM485.641 217.725V219.078C485.641 219.5 485.734 219.898 485.922 220.273C486.109 220.648 486.367 220.947 486.695 221.17C487.035 221.393 487.428 221.504 487.873 221.504C488.436 221.504 488.875 221.393 489.191 221.17C489.508 220.947 489.725 220.648 489.842 220.273C489.971 219.898 490.035 219.5 490.035 219.078V217.725C490.035 217.303 489.953 216.91 489.789 216.547C489.625 216.172 489.379 215.873 489.051 215.65C488.734 215.416 488.33 215.299 487.838 215.299C487.346 215.299 486.936 215.416 486.607 215.65C486.291 215.873 486.051 216.172 485.887 216.547C485.723 216.91 485.641 217.303 485.641 217.725ZM489.086 202.062L476.588 222.066L474.127 220.766L486.625 200.762L489.086 202.062Z" fill="white"/>
</g>
<defs>
<linearGradient id="paint0_linear_2_2" x1="56.9885" y1="179.503" x2="100" y2="179.503" gradientUnits="userSpaceOnUse">
<stop stop-color="#03186F"/>
<stop offset="1" stop-color="#033EAD"/>
</linearGradient>
<linearGradient id="paint1_linear_2_2" x1="326.504" y1="133.994" x2="326.504" y2="288.023" gradientUnits="userSpaceOnUse">
<stop offset="0.58" stop-color="#31319F"/>
<stop offset="0.97" stop-color="#314ADD"/>
</linearGradient>
<linearGradient id="paint2_linear_2_2" x1="169.003" y1="225" x2="169.003" y2="305.002" gradientUnits="userSpaceOnUse">
<stop stop-color="#E56536"/>
<stop offset="1" stop-color="#FF9B00"/>
</linearGradient>
<linearGradient id="paint3_linear_2_2" x1="425.43" y1="175.142" x2="252.238" y2="138.695" gradientUnits="userSpaceOnUse">
<stop stop-color="#133295"/>
<stop offset="1" stop-color="#3163DD"/>
</linearGradient>
<linearGradient id="paint4_linear_2_2" x1="57.0004" y1="99.9971" x2="368" y2="99.9971" gradientUnits="userSpaceOnUse">
<stop stop-color="#03185B"/>
<stop offset="1" stop-color="#03189E"/>
</linearGradient>
<linearGradient id="paint5_linear_2_2" x1="159.265" y1="261.259" x2="226.307" y2="140.103" gradientUnits="userSpaceOnUse">
<stop stop-color="#F97919"/>
<stop offset="1" stop-color="#FFAF10"/>
</linearGradient>
<linearGradient id="paint6_linear_2_2" x1="100" y1="132.5" x2="368" y2="132.5" gradientUnits="userSpaceOnUse">
<stop stop-color="#031822"/>
<stop offset="1" stop-color="#031879"/>
</linearGradient>
</defs>
</svg>
